<svg width="53" height="53" viewBox="0 0 53 53" fill="none" xmlns="http://www.w3.org/2000/svg">
<circle cx="26.5049" cy="26.7068" r="25.766" fill="#07E092"/>
<path d="M26.5048 21.4365C27.3832 17.969 30.7007 16.1985 37.9238 16.1661C38.0393 16.1657 38.1537 16.1881 38.2605 16.2321C38.3673 16.2761 38.4643 16.3408 38.5459 16.4224C38.6276 16.5041 38.6922 16.6011 38.7362 16.7079C38.7802 16.8146 38.8026 16.9291 38.8022 17.0445V32.8555C38.8022 33.0885 38.7097 33.3119 38.5449 33.4766C38.3802 33.6413 38.1568 33.7339 37.9238 33.7339C30.8967 33.7339 28.182 35.1508 26.5048 37.2474C24.8375 35.1613 22.1129 33.7339 15.0858 33.7339C14.5434 33.7339 14.2074 33.2919 14.2074 32.7495V17.0445C14.2069 16.9291 14.2294 16.8146 14.2734 16.7079C14.3173 16.6011 14.382 16.5041 14.4637 16.4224C14.5453 16.3408 14.6423 16.2761 14.7491 16.2321C14.8559 16.1881 14.9703 16.1657 15.0858 16.1661C22.3089 16.1985 25.6264 17.969 26.5048 21.4365Z" stroke="white" stroke-width="2.34236" stroke-linecap="round" stroke-linejoin="round"/>
<path d="M26.5049 21.4365V37.2475" stroke="white" stroke-width="2.34236" stroke-linecap="round" stroke-linejoin="round"/>
</svg>
