<svg width="53" height="53" viewBox="0 0 53 53" fill="none" xmlns="http://www.w3.org/2000/svg">
<circle cx="26.5049" cy="26.5886" r="25.766" fill="#FD5B71"/>
<path d="M21.2347 33.8902C20.9555 33.8905 20.6858 33.789 20.476 33.6048L13.4489 27.456C13.3253 27.3478 13.2263 27.2145 13.1584 27.0649C13.0906 26.9153 13.0555 26.7529 13.0555 26.5886C13.0555 26.4244 13.0906 26.262 13.1584 26.1124C13.2263 25.9628 13.3253 25.8294 13.4489 25.7212L20.476 19.5725C20.7061 19.3712 21.0068 19.2695 21.3119 19.2898C21.6171 19.3101 21.9016 19.4508 22.103 19.6809C22.3043 19.9111 22.406 20.2118 22.3857 20.5169C22.3654 20.822 22.2247 21.1065 21.9945 21.3079L15.9584 26.5886L21.994 31.8694C22.1706 32.0238 22.296 32.2285 22.3532 32.456C22.4105 32.6836 22.3969 32.9232 22.3144 33.1428C22.2319 33.3625 22.0843 33.5517 21.8914 33.6853C21.6985 33.8188 21.4694 33.8903 21.2347 33.8902V33.8902Z" fill="white"/>
<path d="M31.7752 33.8902C31.5405 33.8904 31.3113 33.819 31.1183 33.6855C30.9253 33.552 30.7776 33.3628 30.6951 33.1431C30.6125 32.9234 30.5989 32.6838 30.6561 32.4562C30.7134 32.2286 30.8387 32.0239 31.0154 31.8694L37.0515 26.5886L31.0159 21.3079C30.7858 21.1065 30.6451 20.822 30.6248 20.5169C30.6044 20.2118 30.7061 19.9111 30.9075 19.6809C31.1089 19.4508 31.3934 19.3101 31.6985 19.2898C32.0036 19.2695 32.3043 19.3712 32.5344 19.5725L39.5615 25.7212C39.6851 25.8294 39.7842 25.9628 39.852 26.1124C39.9199 26.262 39.955 26.4244 39.955 26.5886C39.955 26.7529 39.9199 26.9153 39.852 27.0649C39.7842 27.2145 39.6851 27.3478 39.5615 27.456L32.5344 33.6047C32.3246 33.7892 32.0546 33.8907 31.7752 33.8902V33.8902Z" fill="white"/>
<path d="M23.8697 36.5254C23.6902 36.5253 23.5131 36.4833 23.3527 36.4028C23.1922 36.3222 23.0528 36.2053 22.9455 36.0614C22.8383 35.9174 22.7661 35.7504 22.7348 35.5736C22.7035 35.3968 22.7139 35.2151 22.7652 35.0431L28.0355 17.4753C28.0752 17.3263 28.1444 17.1867 28.239 17.0648C28.3337 16.943 28.4518 16.8414 28.5864 16.766C28.721 16.6907 28.8694 16.6431 29.0227 16.6261C29.1761 16.6092 29.3312 16.6231 29.4791 16.6672C29.6269 16.7113 29.7644 16.7847 29.8834 16.8829C30.0024 16.9811 30.1004 17.1021 30.1718 17.2389C30.2431 17.3757 30.2863 17.5254 30.2987 17.6792C30.3111 17.833 30.2925 17.9877 30.2441 18.1341L24.9738 35.7019C24.9029 35.9397 24.7571 36.1482 24.5582 36.2966C24.3593 36.445 24.1179 36.5252 23.8697 36.5254V36.5254Z" fill="white"/>
</svg>
