<svg width="65" height="28" viewBox="0 0 65 28" fill="none" xmlns="http://www.w3.org/2000/svg">
<rect width="64.2613" height="27.4133" rx="6.848" fill="#FFEFF1"/>
<path d="M13.7737 18.8436C12.9337 18.8436 12.2352 18.6884 11.6782 18.378C11.1304 18.0675 10.7149 17.6338 10.4319 17.0768C10.1488 16.5199 9.99359 15.8716 9.96619 15.132C9.95706 14.7577 9.9525 14.3559 9.9525 13.9268C9.9525 13.4976 9.95706 13.0867 9.96619 12.6941C9.99359 11.9545 10.1488 11.3063 10.4319 10.7493C10.7149 10.1923 11.1304 9.75861 11.6782 9.44817C12.2352 9.13773 12.9337 8.9825 13.7737 8.9825C14.4037 8.9825 14.9561 9.06925 15.4309 9.24273C15.9057 9.41621 16.2983 9.64904 16.6088 9.94122C16.9283 10.2334 17.1703 10.5621 17.3346 10.9273C17.499 11.2834 17.5903 11.6532 17.6086 12.0367C17.6177 12.1189 17.5903 12.1874 17.5264 12.2422C17.4716 12.2969 17.4031 12.3243 17.3209 12.3243H16.5677C16.4855 12.3243 16.4124 12.3015 16.3485 12.2558C16.2937 12.2102 16.2527 12.128 16.2253 12.0093C16.07 11.2971 15.7779 10.8086 15.3487 10.5438C14.9287 10.2791 14.3991 10.1467 13.76 10.1467C13.0295 10.1467 12.4497 10.3567 12.0206 10.7767C11.5915 11.1876 11.3586 11.8495 11.3221 12.7626C11.2947 13.5113 11.2947 14.2783 11.3221 15.0635C11.3586 15.9766 11.5915 16.6431 12.0206 17.0631C12.4497 17.474 13.0295 17.6795 13.76 17.6795C14.3991 17.6795 14.9287 17.5471 15.3487 17.2823C15.7779 17.0175 16.07 16.529 16.2253 15.8168C16.2527 15.6981 16.2937 15.6159 16.3485 15.5703C16.4124 15.5246 16.4855 15.5018 16.5677 15.5018H17.3209C17.4031 15.5018 17.4716 15.5292 17.5264 15.584C17.5903 15.6388 17.6177 15.7072 17.6086 15.7894C17.5903 16.1729 17.499 16.5473 17.3346 16.9125C17.1703 17.2686 16.9283 17.5927 16.6088 17.8849C16.2983 18.1771 15.9057 18.4099 15.4309 18.5834C14.9561 18.7569 14.4037 18.8436 13.7737 18.8436ZM22.1832 18.8436C21.4893 18.8436 20.9095 18.7112 20.4438 18.4464C19.9782 18.1817 19.6221 17.8164 19.3756 17.3508C19.129 16.876 18.9921 16.3373 18.9647 15.7346C18.9555 15.5794 18.951 15.3831 18.951 15.1457C18.951 14.8992 18.9555 14.7029 18.9647 14.5568C18.9921 13.945 19.129 13.4063 19.3756 12.9406C19.6312 12.475 19.9919 12.1098 20.4575 11.845C20.9232 11.5802 21.4984 11.4478 22.1832 11.4478C22.868 11.4478 23.4433 11.5802 23.9089 11.845C24.3746 12.1098 24.7307 12.475 24.9772 12.9406C25.2329 13.4063 25.3744 13.945 25.4018 14.5568C25.4109 14.7029 25.4155 14.8992 25.4155 15.1457C25.4155 15.3831 25.4109 15.5794 25.4018 15.7346C25.3744 16.3373 25.2374 16.876 24.9909 17.3508C24.7444 17.8164 24.3883 18.1817 23.9226 18.4464C23.457 18.7112 22.8772 18.8436 22.1832 18.8436ZM22.1832 17.789C22.7493 17.789 23.2013 17.611 23.5391 17.2549C23.877 16.8897 24.0596 16.3601 24.087 15.6662C24.0961 15.5292 24.1007 15.3557 24.1007 15.1457C24.1007 14.9357 24.0961 14.7622 24.087 14.6253C24.0596 13.9313 23.877 13.4063 23.5391 13.0502C23.2013 12.685 22.7493 12.5024 22.1832 12.5024C21.6171 12.5024 21.1606 12.685 20.8136 13.0502C20.4758 13.4063 20.2978 13.9313 20.2795 14.6253C20.2704 14.7622 20.2658 14.9357 20.2658 15.1457C20.2658 15.3557 20.2704 15.5292 20.2795 15.6662C20.2978 16.3601 20.4758 16.8897 20.8136 17.2549C21.1606 17.611 21.6171 17.789 22.1832 17.789ZM29.7327 18.8436C29.2305 18.8436 28.7968 18.7569 28.4316 18.5834C28.0664 18.4008 27.7651 18.1588 27.5277 17.8575C27.2994 17.5471 27.1259 17.1955 27.0072 16.8029C26.8977 16.4103 26.8337 15.9949 26.8155 15.5566C26.8064 15.4105 26.8018 15.2735 26.8018 15.1457C26.8018 15.0179 26.8064 14.8809 26.8155 14.7348C26.8337 14.3057 26.8977 13.8948 27.0072 13.5022C27.1259 13.1096 27.2994 12.758 27.5277 12.4476C27.7651 12.1372 28.0664 11.8952 28.4316 11.7217C28.7968 11.5391 29.2305 11.4478 29.7327 11.4478C30.2714 11.4478 30.7188 11.5437 31.0749 11.7354C31.431 11.9271 31.7232 12.1645 31.9515 12.4476V9.29751C31.9515 9.20621 31.9789 9.13316 32.0337 9.07838C32.0976 9.01446 32.1752 8.9825 32.2665 8.9825H32.9239C33.0152 8.9825 33.0883 9.01446 33.143 9.07838C33.207 9.13316 33.2389 9.20621 33.2389 9.29751V18.3917C33.2389 18.483 33.207 18.5606 33.143 18.6245C33.0883 18.6793 33.0152 18.7067 32.9239 18.7067H32.3076C32.2071 18.7067 32.1295 18.6793 32.0747 18.6245C32.02 18.5606 31.9926 18.483 31.9926 18.3917V17.8164C31.7643 18.1086 31.4676 18.3551 31.1023 18.556C30.7371 18.7478 30.2806 18.8436 29.7327 18.8436ZM30.0203 17.7342C30.4769 17.7342 30.8421 17.6292 31.116 17.4192C31.3899 17.2092 31.5954 16.9444 31.7323 16.6249C31.8693 16.2962 31.9424 15.9629 31.9515 15.6251C31.9606 15.479 31.9652 15.3055 31.9652 15.1046C31.9652 14.8946 31.9606 14.7166 31.9515 14.5705C31.9424 14.2509 31.8647 13.9359 31.7187 13.6254C31.5817 13.315 31.3717 13.0593 31.0886 12.8585C30.8147 12.6576 30.4586 12.5572 30.0203 12.5572C29.5547 12.5572 29.1849 12.6622 28.911 12.8722C28.6371 13.073 28.4407 13.3424 28.322 13.6802C28.2033 14.0089 28.1349 14.365 28.1166 14.7485C28.1075 15.0133 28.1075 15.2781 28.1166 15.5429C28.1349 15.9264 28.2033 16.287 28.322 16.6249C28.4407 16.9536 28.6371 17.2229 28.911 17.4329C29.1849 17.6338 29.5547 17.7342 30.0203 17.7342ZM35.5909 18.7067C35.4996 18.7067 35.422 18.6793 35.358 18.6245C35.3033 18.5606 35.2759 18.483 35.2759 18.3917V11.8998C35.2759 11.8084 35.3033 11.7354 35.358 11.6806C35.422 11.6167 35.4996 11.5847 35.5909 11.5847H36.2483C36.3396 11.5847 36.4126 11.6167 36.4674 11.6806C36.5222 11.7354 36.5496 11.8084 36.5496 11.8998V18.3917C36.5496 18.483 36.5222 18.5606 36.4674 18.6245C36.4126 18.6793 36.3396 18.7067 36.2483 18.7067H35.5909ZM35.4813 10.2562C35.39 10.2562 35.3124 10.2288 35.2485 10.1741C35.1937 10.1101 35.1663 10.0325 35.1663 9.94122V9.20164C35.1663 9.11033 35.1937 9.03729 35.2485 8.9825C35.3124 8.91859 35.39 8.88663 35.4813 8.88663H36.3442C36.4355 8.88663 36.5085 8.91859 36.5633 8.9825C36.6272 9.03729 36.6592 9.11033 36.6592 9.20164V9.94122C36.6592 10.0325 36.6272 10.1101 36.5633 10.1741C36.5085 10.2288 36.4355 10.2562 36.3442 10.2562H35.4813ZM39.0416 18.7067C38.9503 18.7067 38.8727 18.6793 38.8088 18.6245C38.754 18.5606 38.7266 18.483 38.7266 18.3917V11.8998C38.7266 11.8084 38.754 11.7354 38.8088 11.6806C38.8727 11.6167 38.9503 11.5847 39.0416 11.5847H39.6853C39.7766 11.5847 39.8497 11.6167 39.9045 11.6806C39.9684 11.7354 40.0003 11.8084 40.0003 11.8998V12.5024C40.2377 12.1919 40.5345 11.9408 40.8906 11.7491C41.2558 11.5482 41.7215 11.4478 42.2876 11.4478C42.8811 11.4478 43.3833 11.5802 43.7941 11.845C44.2141 12.1006 44.5292 12.4613 44.7392 12.927C44.9492 13.3835 45.0542 13.9176 45.0542 14.5294V18.3917C45.0542 18.483 45.0268 18.5606 44.972 18.6245C44.9172 18.6793 44.8442 18.7067 44.7529 18.7067H44.0681C43.9767 18.7067 43.8991 18.6793 43.8352 18.6245C43.7804 18.5606 43.753 18.483 43.753 18.3917V14.5979C43.753 13.9587 43.5978 13.4611 43.2874 13.105C42.9769 12.7398 42.5204 12.5572 41.9178 12.5572C41.3517 12.5572 40.8951 12.7398 40.5482 13.105C40.2103 13.4611 40.0414 13.9587 40.0414 14.5979V18.3917C40.0414 18.483 40.0095 18.5606 39.9456 18.6245C39.8908 18.6793 39.8177 18.7067 39.7264 18.7067H39.0416ZM49.9497 21.7198C49.3289 21.7198 48.8175 21.6376 48.4158 21.4733C48.0232 21.3089 47.7127 21.108 47.4845 20.8706C47.2653 20.6424 47.1055 20.4095 47.0051 20.1721C46.9138 19.9439 46.8636 19.7613 46.8544 19.6243C46.8453 19.533 46.8727 19.4554 46.9366 19.3915C47.0097 19.3276 47.0873 19.2956 47.1694 19.2956H47.8269C47.909 19.2956 47.9775 19.3139 48.0323 19.3504C48.0871 19.3869 48.1327 19.4645 48.1693 19.5832C48.224 19.7202 48.3062 19.8708 48.4158 20.0352C48.5254 20.2087 48.6943 20.3548 48.9225 20.4734C49.1508 20.6013 49.4704 20.6652 49.8813 20.6652C50.3104 20.6652 50.6711 20.6058 50.9632 20.4871C51.2554 20.3776 51.4746 20.1767 51.6206 19.8845C51.7759 19.6015 51.8535 19.2089 51.8535 18.7067V17.7753C51.6343 18.0584 51.3467 18.2958 50.9906 18.4875C50.6345 18.6701 50.1871 18.7614 49.6484 18.7614C49.1371 18.7614 48.6988 18.6747 48.3336 18.5012C47.9684 18.3186 47.6671 18.0766 47.4297 17.7753C47.2014 17.4649 47.0279 17.1134 46.9092 16.7207C46.7997 16.3281 46.7357 15.9172 46.7175 15.4881C46.7084 15.2324 46.7084 14.9814 46.7175 14.7348C46.7357 14.3057 46.7997 13.8948 46.9092 13.5022C47.0279 13.1096 47.2014 12.758 47.4297 12.4476C47.6671 12.1372 47.9684 11.8952 48.3336 11.7217C48.6988 11.5391 49.1371 11.4478 49.6484 11.4478C50.1963 11.4478 50.6482 11.5528 51.0043 11.7628C51.3696 11.9637 51.6663 12.2102 51.8946 12.5024V11.9134C51.8946 11.8221 51.922 11.7445 51.9767 11.6806C52.0407 11.6167 52.1183 11.5847 52.2096 11.5847H52.8396C52.9309 11.5847 53.0085 11.6167 53.0724 11.6806C53.1363 11.7445 53.1683 11.8221 53.1683 11.9134V18.556C53.1683 19.1678 53.0633 19.711 52.8533 20.1858C52.6524 20.6606 52.3146 21.035 51.8398 21.3089C51.3741 21.5828 50.7441 21.7198 49.9497 21.7198ZM49.9223 17.6658C50.3789 17.6658 50.7441 17.5608 51.018 17.3508C51.3011 17.1408 51.5065 16.876 51.6343 16.5564C51.7713 16.2368 51.8444 15.9127 51.8535 15.584C51.8626 15.4561 51.8672 15.3009 51.8672 15.1183C51.8672 14.9266 51.8626 14.7668 51.8535 14.639C51.8444 14.3102 51.7713 13.9861 51.6343 13.6665C51.5065 13.347 51.3011 13.0822 51.018 12.8722C50.7441 12.6622 50.3789 12.5572 49.9223 12.5572C49.4658 12.5572 49.1006 12.6622 48.8267 12.8722C48.5527 13.073 48.3564 13.3424 48.2377 13.6802C48.119 14.0089 48.0506 14.365 48.0323 14.7485C48.0232 14.9859 48.0232 15.2279 48.0323 15.4744C48.0506 15.8579 48.119 16.2186 48.2377 16.5564C48.3564 16.8851 48.5527 17.1545 48.8267 17.3645C49.1006 17.5653 49.4658 17.6658 49.9223 17.6658Z" fill="#FD5B71"/>
</svg>
