<svg width="51" height="51" viewBox="0 0 51 51" fill="none" xmlns="http://www.w3.org/2000/svg">
<circle cx="25.11" cy="25.11" r="25.11" fill="#4555E1"/>
<path d="M8 21.0498V20.6533C8 15.875 11.4535 11.7994 16.1621 11.0146C19.2178 10.4958 22.4512 11.5116 24.6797 13.7435L25.5 14.5625L26.2588 13.7435C28.5488 11.5116 31.7207 10.4958 34.8379 11.0146C39.5479 11.7994 43 15.875 43 20.6533V21.0498C43 23.8867 41.8242 26.6005 39.7461 28.5351L27.3936 40.0673C26.8809 40.5459 26.2041 40.8125 25.5 40.8125C24.7959 40.8125 24.1191 40.5459 23.6064 40.0673L11.2532 28.5351C9.17783 26.6005 8.00002 23.8867 8.00002 21.0498H8Z" fill="white"/>
</svg>
