<svg width="51" height="51" viewBox="0 0 51 51" fill="none" xmlns="http://www.w3.org/2000/svg">
<circle cx="25.632" cy="25.3147" r="25.1093" fill="#9B51E0"/>
<path d="M35.904 15.0426H15.36C14.4145 15.0426 13.648 15.8091 13.648 16.7546V30.4506C13.648 31.3961 14.4145 32.1626 15.36 32.1626H35.904C36.8495 32.1626 37.616 31.3961 37.616 30.4506V16.7546C37.616 15.8091 36.8495 15.0426 35.904 15.0426Z" stroke="white" stroke-width="2.28267" stroke-linejoin="round"/>
<path d="M28.2 35.5866L27.772 32.1626H23.492L23.064 35.5866H28.2Z" fill="white" stroke="white" stroke-width="2.28267" stroke-linecap="round" stroke-linejoin="round"/>
<path d="M31.624 35.5867H19.64" stroke="white" stroke-width="2.28267" stroke-linecap="round" stroke-linejoin="round"/>
<path d="M13.648 27.8827V30.4507C13.6493 30.9044 13.8301 31.3391 14.1508 31.6599C14.4716 31.9806 14.9064 32.1614 15.36 32.1627H35.904C36.3577 32.1614 36.7924 31.9806 37.1132 31.6599C37.434 31.3391 37.6147 30.9044 37.616 30.4507V27.8827H13.648ZM25.632 31.3067C25.4627 31.3067 25.2972 31.2565 25.1564 31.1624C25.0157 31.0684 24.906 30.9347 24.8412 30.7783C24.7764 30.6219 24.7594 30.4497 24.7925 30.2837C24.8255 30.1176 24.907 29.9651 25.0267 29.8454C25.1464 29.7257 25.299 29.6442 25.465 29.6111C25.6311 29.5781 25.8032 29.5951 25.9596 29.6598C26.116 29.7246 26.2497 29.8344 26.3437 29.9751C26.4378 30.1159 26.488 30.2814 26.488 30.4507C26.488 30.6777 26.3978 30.8954 26.2373 31.056C26.0768 31.2165 25.859 31.3067 25.632 31.3067Z" fill="white"/>
</svg>
