<svg width="28" height="28" viewBox="0 0 28 28" fill="none" xmlns="http://www.w3.org/2000/svg">
<path d="M7.20081 23.7026C6.87233 23.702 6.54967 23.6159 6.26456 23.4528C5.62256 23.089 5.22345 22.3828 5.22345 21.6161V6.10112C5.22345 5.33233 5.62256 4.62827 6.26456 4.26447C6.55646 4.09671 6.88806 4.01044 7.2247 4.01468C7.56134 4.01891 7.89067 4.11349 8.17825 4.28854L21.4382 12.2258C21.7146 12.3991 21.9424 12.6397 22.1003 12.9251C22.2582 13.2105 22.3411 13.5314 22.3411 13.8576C22.3411 14.1837 22.2582 14.5046 22.1003 14.79C21.9424 15.0754 21.7146 15.316 21.4382 15.4893L8.17611 23.4287C7.88181 23.6066 7.54472 23.7013 7.20081 23.7026V23.7026Z" fill="#828282"/>
</svg>
