<svg width="72" height="28" viewBox="0 0 72 28" fill="none" xmlns="http://www.w3.org/2000/svg">
<rect width="71.2613" height="27.4133" rx="6.848" fill="#E6FCF4"/>
<path d="M10.6373 18.7067C10.5369 18.7067 10.4592 18.6793 10.4045 18.6245C10.3497 18.5606 10.3223 18.483 10.3223 18.3917V9.44817C10.3223 9.34773 10.3497 9.27012 10.4045 9.21534C10.4592 9.15142 10.5369 9.11946 10.6373 9.11946H13.9791C15.0109 9.11946 15.8281 9.36143 16.4307 9.84535C17.0333 10.3293 17.3346 11.046 17.3346 11.9956C17.3346 12.6987 17.1566 13.2739 16.8005 13.7213C16.4535 14.1596 15.9787 14.4655 15.3761 14.639L17.4853 18.2821C17.5127 18.3369 17.5264 18.3871 17.5264 18.4327C17.5264 18.5058 17.4944 18.5697 17.4305 18.6245C17.3757 18.6793 17.3118 18.7067 17.2388 18.7067H16.5814C16.4261 18.7067 16.312 18.6656 16.239 18.5834C16.1659 18.5012 16.102 18.419 16.0472 18.3369L14.0613 14.8581H11.6645V18.3917C11.6645 18.483 11.6325 18.5606 11.5686 18.6245C11.5138 18.6793 11.4362 18.7067 11.3358 18.7067H10.6373ZM11.6645 13.6939H13.9243C14.6091 13.6939 15.1205 13.5524 15.4583 13.2694C15.7961 12.9772 15.965 12.548 15.965 11.9819C15.965 11.425 15.7961 11.0004 15.4583 10.7082C15.1296 10.416 14.6183 10.2699 13.9243 10.2699H11.6645V13.6939ZM21.8737 18.8436C20.9332 18.8436 20.1845 18.556 19.6275 17.9808C19.0706 17.3964 18.7647 16.602 18.7099 15.5977C18.7008 15.479 18.6962 15.3283 18.6962 15.1457C18.6962 14.954 18.7008 14.7987 18.7099 14.68C18.7464 14.0318 18.8971 13.4657 19.1619 12.9817C19.4267 12.4887 19.7873 12.1098 20.2439 11.845C20.7095 11.5802 21.2528 11.4478 21.8737 11.4478C22.5676 11.4478 23.1474 11.5939 23.6131 11.8861C24.0879 12.1782 24.4485 12.5937 24.6951 13.1324C24.9416 13.6711 25.0649 14.3011 25.0649 15.0224V15.2553C25.0649 15.3557 25.0329 15.4333 24.969 15.4881C24.9142 15.5429 24.8412 15.5703 24.7498 15.5703H20.011C20.011 15.5794 20.011 15.5977 20.011 15.6251C20.011 15.6525 20.011 15.6753 20.011 15.6935C20.0293 16.0679 20.1115 16.4194 20.2576 16.7481C20.4037 17.0677 20.6137 17.3279 20.8876 17.5288C21.1615 17.7297 21.4902 17.8301 21.8737 17.8301C22.2024 17.8301 22.4763 17.7799 22.6954 17.6795C22.9146 17.579 23.0926 17.4695 23.2296 17.3508C23.3666 17.2229 23.4579 17.1271 23.5035 17.0631C23.5857 16.9444 23.6496 16.876 23.6953 16.8577C23.7409 16.8303 23.814 16.8166 23.9144 16.8166H24.5718C24.6631 16.8166 24.7362 16.844 24.7909 16.8988C24.8549 16.9444 24.8822 17.0129 24.8731 17.1042C24.864 17.2412 24.7909 17.4101 24.654 17.611C24.517 17.8027 24.3207 17.9945 24.065 18.1862C23.8094 18.378 23.4989 18.5377 23.1337 18.6656C22.7685 18.7843 22.3485 18.8436 21.8737 18.8436ZM20.011 14.6253H23.7637V14.5842C23.7637 14.1733 23.6861 13.8081 23.5309 13.4885C23.3848 13.1689 23.1702 12.9178 22.8872 12.7352C22.6041 12.5435 22.2663 12.4476 21.8737 12.4476C21.4811 12.4476 21.1432 12.5435 20.8602 12.7352C20.5863 12.9178 20.3763 13.1689 20.2302 13.4885C20.0841 13.8081 20.011 14.1733 20.011 14.5842V14.6253ZM28.6884 18.8436C28.2319 18.8436 27.8164 18.7523 27.4421 18.5697C27.0677 18.3871 26.7664 18.1406 26.5381 17.8301C26.3099 17.5197 26.1957 17.1681 26.1957 16.7755C26.1957 16.1455 26.4514 15.6433 26.9627 15.269C27.474 14.8946 28.1406 14.6481 28.9623 14.5294L31.003 14.2418V13.8446C31.003 13.4063 30.8752 13.0639 30.6195 12.8174C30.373 12.5709 29.9667 12.4476 29.4006 12.4476C28.9897 12.4476 28.6565 12.5298 28.4008 12.6941C28.1543 12.8585 27.9808 13.0685 27.8803 13.3241C27.8256 13.4611 27.7297 13.5296 27.5927 13.5296H26.9764C26.876 13.5296 26.7984 13.5022 26.7436 13.4474C26.6979 13.3835 26.6751 13.3104 26.6751 13.2283C26.6751 13.0913 26.7253 12.9224 26.8258 12.7215C26.9353 12.5206 27.0997 12.3243 27.3188 12.1326C27.5379 11.9408 27.8164 11.7811 28.1543 11.6532C28.5012 11.5163 28.9212 11.4478 29.4143 11.4478C29.9621 11.4478 30.4232 11.5208 30.7976 11.6669C31.172 11.8039 31.4641 11.9911 31.6741 12.2285C31.8933 12.4659 32.0485 12.7352 32.1398 13.0365C32.2402 13.3378 32.2905 13.6437 32.2905 13.9542V18.3917C32.2905 18.483 32.2585 18.5606 32.1946 18.6245C32.1398 18.6793 32.0668 18.7067 31.9755 18.7067H31.3454C31.245 18.7067 31.1674 18.6793 31.1126 18.6245C31.0578 18.5606 31.0304 18.483 31.0304 18.3917V17.8027C30.9117 17.9671 30.7519 18.1314 30.5511 18.2958C30.3502 18.451 30.0991 18.5834 29.7978 18.693C29.4965 18.7934 29.1267 18.8436 28.6884 18.8436ZM28.976 17.8164C29.3504 17.8164 29.6928 17.7388 30.0032 17.5836C30.3137 17.4192 30.5556 17.1681 30.7291 16.8303C30.9117 16.4925 31.003 16.0679 31.003 15.5566V15.1731L29.4143 15.4059C28.766 15.4972 28.2775 15.6525 27.9488 15.8716C27.6201 16.0816 27.4558 16.351 27.4558 16.6797C27.4558 16.9353 27.5288 17.1499 27.6749 17.3234C27.8301 17.4877 28.0219 17.611 28.2501 17.6932C28.4875 17.7753 28.7295 17.8164 28.976 17.8164ZM36.8616 18.8436C36.3594 18.8436 35.9257 18.7569 35.5605 18.5834C35.1953 18.4008 34.8939 18.1588 34.6566 17.8575C34.4283 17.5471 34.2548 17.1955 34.1361 16.8029C34.0265 16.4103 33.9626 15.9949 33.9444 15.5566C33.9352 15.4105 33.9307 15.2735 33.9307 15.1457C33.9307 15.0179 33.9352 14.8809 33.9444 14.7348C33.9626 14.3057 34.0265 13.8948 34.1361 13.5022C34.2548 13.1096 34.4283 12.758 34.6566 12.4476C34.8939 12.1372 35.1953 11.8952 35.5605 11.7217C35.9257 11.5391 36.3594 11.4478 36.8616 11.4478C37.4003 11.4478 37.8477 11.5437 38.2038 11.7354C38.5599 11.9271 38.8521 12.1645 39.0804 12.4476V9.29751C39.0804 9.20621 39.1078 9.13316 39.1625 9.07838C39.2264 9.01446 39.3041 8.9825 39.3954 8.9825H40.0528C40.1441 8.9825 40.2171 9.01446 40.2719 9.07838C40.3358 9.13316 40.3678 9.20621 40.3678 9.29751V18.3917C40.3678 18.483 40.3358 18.5606 40.2719 18.6245C40.2171 18.6793 40.1441 18.7067 40.0528 18.7067H39.4365C39.336 18.7067 39.2584 18.6793 39.2036 18.6245C39.1488 18.5606 39.1214 18.483 39.1214 18.3917V17.8164C38.8932 18.1086 38.5964 18.3551 38.2312 18.556C37.866 18.7478 37.4094 18.8436 36.8616 18.8436ZM37.1492 17.7342C37.6058 17.7342 37.971 17.6292 38.2449 17.4192C38.5188 17.2092 38.7243 16.9444 38.8612 16.6249C38.9982 16.2962 39.0712 15.9629 39.0804 15.6251C39.0895 15.479 39.0941 15.3055 39.0941 15.1046C39.0941 14.8946 39.0895 14.7166 39.0804 14.5705C39.0712 14.2509 38.9936 13.9359 38.8475 13.6254C38.7106 13.315 38.5006 13.0593 38.2175 12.8585C37.9436 12.6576 37.5875 12.5572 37.1492 12.5572C36.6836 12.5572 36.3138 12.6622 36.0398 12.8722C35.7659 13.073 35.5696 13.3424 35.4509 13.6802C35.3322 14.0089 35.2637 14.365 35.2455 14.7485C35.2363 15.0133 35.2363 15.2781 35.2455 15.5429C35.2637 15.9264 35.3322 16.287 35.4509 16.6249C35.5696 16.9536 35.7659 17.2229 36.0398 17.4329C36.3138 17.6338 36.6836 17.7342 37.1492 17.7342ZM42.7198 18.7067C42.6284 18.7067 42.5508 18.6793 42.4869 18.6245C42.4321 18.5606 42.4047 18.483 42.4047 18.3917V11.8998C42.4047 11.8084 42.4321 11.7354 42.4869 11.6806C42.5508 11.6167 42.6284 11.5847 42.7198 11.5847H43.3772C43.4685 11.5847 43.5415 11.6167 43.5963 11.6806C43.6511 11.7354 43.6785 11.8084 43.6785 11.8998V18.3917C43.6785 18.483 43.6511 18.5606 43.5963 18.6245C43.5415 18.6793 43.4685 18.7067 43.3772 18.7067H42.7198ZM42.6102 10.2562C42.5189 10.2562 42.4413 10.2288 42.3774 10.1741C42.3226 10.1101 42.2952 10.0325 42.2952 9.94122V9.20164C42.2952 9.11033 42.3226 9.03729 42.3774 8.9825C42.4413 8.91859 42.5189 8.88663 42.6102 8.88663H43.473C43.5643 8.88663 43.6374 8.91859 43.6922 8.9825C43.7561 9.03729 43.788 9.11033 43.788 9.20164V9.94122C43.788 10.0325 43.7561 10.1101 43.6922 10.1741C43.6374 10.2288 43.5643 10.2562 43.473 10.2562H42.6102ZM46.1705 18.7067C46.0792 18.7067 46.0016 18.6793 45.9377 18.6245C45.8829 18.5606 45.8555 18.483 45.8555 18.3917V11.8998C45.8555 11.8084 45.8829 11.7354 45.9377 11.6806C46.0016 11.6167 46.0792 11.5847 46.1705 11.5847H46.8142C46.9055 11.5847 46.9786 11.6167 47.0333 11.6806C47.0973 11.7354 47.1292 11.8084 47.1292 11.8998V12.5024C47.3666 12.1919 47.6634 11.9408 48.0195 11.7491C48.3847 11.5482 48.8504 11.4478 49.4165 11.4478C50.0099 11.4478 50.5121 11.5802 50.923 11.845C51.343 12.1006 51.658 12.4613 51.868 12.927C52.078 13.3835 52.183 13.9176 52.183 14.5294V18.3917C52.183 18.483 52.1557 18.5606 52.1009 18.6245C52.0461 18.6793 51.973 18.7067 51.8817 18.7067H51.1969C51.1056 18.7067 51.028 18.6793 50.9641 18.6245C50.9093 18.5606 50.8819 18.483 50.8819 18.3917V14.5979C50.8819 13.9587 50.7267 13.4611 50.4163 13.105C50.1058 12.7398 49.6493 12.5572 49.0467 12.5572C48.4806 12.5572 48.024 12.7398 47.6771 13.105C47.3392 13.4611 47.1703 13.9587 47.1703 14.5979V18.3917C47.1703 18.483 47.1384 18.5606 47.0744 18.6245C47.0197 18.6793 46.9466 18.7067 46.8553 18.7067H46.1705ZM57.0786 21.7198C56.4577 21.7198 55.9464 21.6376 55.5447 21.4733C55.152 21.3089 54.8416 21.108 54.6133 20.8706C54.3942 20.6424 54.2344 20.4095 54.134 20.1721C54.0427 19.9439 53.9924 19.7613 53.9833 19.6243C53.9742 19.533 54.0016 19.4554 54.0655 19.3915C54.1385 19.3276 54.2161 19.2956 54.2983 19.2956H54.9557C55.0379 19.2956 55.1064 19.3139 55.1612 19.3504C55.216 19.3869 55.2616 19.4645 55.2981 19.5832C55.3529 19.7202 55.4351 19.8708 55.5447 20.0352C55.6542 20.2087 55.8231 20.3548 56.0514 20.4734C56.2797 20.6013 56.5993 20.6652 57.0101 20.6652C57.4393 20.6652 57.7999 20.6058 58.0921 20.4871C58.3843 20.3776 58.6034 20.1767 58.7495 19.8845C58.9047 19.6015 58.9824 19.2089 58.9824 18.7067V17.7753C58.7632 18.0584 58.4756 18.2958 58.1195 18.4875C57.7634 18.6701 57.316 18.7614 56.7773 18.7614C56.266 18.7614 55.8277 18.6747 55.4625 18.5012C55.0973 18.3186 54.7959 18.0766 54.5585 17.7753C54.3303 17.4649 54.1568 17.1134 54.0381 16.7207C53.9285 16.3281 53.8646 15.9172 53.8464 15.4881C53.8372 15.2324 53.8372 14.9814 53.8464 14.7348C53.8646 14.3057 53.9285 13.8948 54.0381 13.5022C54.1568 13.1096 54.3303 12.758 54.5585 12.4476C54.7959 12.1372 55.0973 11.8952 55.4625 11.7217C55.8277 11.5391 56.266 11.4478 56.7773 11.4478C57.3251 11.4478 57.7771 11.5528 58.1332 11.7628C58.4984 11.9637 58.7952 12.2102 59.0234 12.5024V11.9134C59.0234 11.8221 59.0508 11.7445 59.1056 11.6806C59.1695 11.6167 59.2471 11.5847 59.3385 11.5847H59.9685C60.0598 11.5847 60.1374 11.6167 60.2013 11.6806C60.2652 11.7445 60.2972 11.8221 60.2972 11.9134V18.556C60.2972 19.1678 60.1922 19.711 59.9822 20.1858C59.7813 20.6606 59.4435 21.035 58.9687 21.3089C58.503 21.5828 57.873 21.7198 57.0786 21.7198ZM57.0512 17.6658C57.5078 17.6658 57.873 17.5608 58.1469 17.3508C58.43 17.1408 58.6354 16.876 58.7632 16.5564C58.9002 16.2368 58.9732 15.9127 58.9824 15.584C58.9915 15.4561 58.9961 15.3009 58.9961 15.1183C58.9961 14.9266 58.9915 14.7668 58.9824 14.639C58.9732 14.3102 58.9002 13.9861 58.7632 13.6665C58.6354 13.347 58.43 13.0822 58.1469 12.8722C57.873 12.6622 57.5078 12.5572 57.0512 12.5572C56.5947 12.5572 56.2295 12.6622 55.9555 12.8722C55.6816 13.073 55.4853 13.3424 55.3666 13.6802C55.2479 14.0089 55.1794 14.365 55.1612 14.7485C55.152 14.9859 55.152 15.2279 55.1612 15.4744C55.1794 15.8579 55.2479 16.2186 55.3666 16.5564C55.4853 16.8851 55.6816 17.1545 55.9555 17.3645C56.2295 17.5653 56.5947 17.6658 57.0512 17.6658Z" fill="#07E092"/>
</svg>
