<svg width="334" height="300" viewBox="0 0 334 300" fill="none" xmlns="http://www.w3.org/2000/svg">
<g clip-path="url(#clip0_7_24)">
<path d="M308.252 229.509L323.211 231.758C328.275 225.86 331.766 218.863 333.38 211.374C322.442 219.986 305.807 215.409 292.544 220.112C288.418 221.609 284.696 223.979 281.653 227.048C278.61 230.117 276.324 233.805 274.964 237.839L267.653 245.405C274.271 247.925 281.378 249.036 288.485 248.659C295.591 248.283 302.529 246.429 308.819 243.225C312.329 241.394 315.586 239.146 318.512 236.532C313.278 233.362 308.252 229.509 308.252 229.509Z" fill="#F2F2F2"/>
<path d="M302.942 206.495L317.374 202.091C319.172 194.64 319.052 186.88 317.024 179.484C311.227 191.885 294.216 194.925 284.525 204.823C281.527 207.933 279.295 211.652 277.994 215.704C276.693 219.756 276.357 224.038 277.01 228.232L273.974 238.14C281.066 237.557 287.942 235.501 294.128 232.116C300.314 228.73 305.664 224.095 309.809 218.529C312.102 215.385 313.974 211.975 315.381 208.38C309.226 207.788 302.942 206.495 302.942 206.495Z" fill="#F2F2F2"/>
<path d="M333.461 249.989C333.461 250.063 333.446 250.136 333.416 250.205C333.387 250.274 333.344 250.336 333.289 250.389C333.235 250.441 333.17 250.483 333.098 250.511C333.027 250.539 332.951 250.554 332.873 250.553H0.587305C0.431544 250.553 0.282161 250.494 0.172022 250.388C0.0618825 250.282 7.62939e-06 250.138 7.62939e-06 249.989C7.62939e-06 249.839 0.0618825 249.695 0.172022 249.589C0.282161 249.483 0.431544 249.424 0.587305 249.424H332.873C332.951 249.423 333.027 249.438 333.098 249.466C333.17 249.494 333.235 249.536 333.289 249.589C333.344 249.641 333.387 249.703 333.416 249.772C333.446 249.841 333.461 249.914 333.461 249.989V249.989Z" fill="#CCCCCC"/>
<path d="M137.693 225.905C196.295 225.905 243.801 180.208 243.801 123.839C243.801 67.4699 196.295 21.7736 137.693 21.7736C79.0908 21.7736 31.5846 67.4699 31.5846 123.839C31.5846 180.208 79.0908 225.905 137.693 225.905Z" fill="#E6E6E6"/>
<path d="M228.995 123.839C229.006 137.543 225.678 151.058 219.278 163.302C212.878 175.545 203.585 186.175 192.143 194.34C191.378 194.891 190.599 195.427 189.814 195.95C174.514 206.18 156.326 211.663 137.693 211.663C119.059 211.663 100.872 206.18 85.5714 195.95C84.7867 195.427 84.0069 194.891 83.2419 194.34C71.8082 186.168 62.5206 175.536 56.1218 163.295C49.723 151.053 46.3904 137.541 46.3904 123.839C46.3904 110.137 49.723 96.6253 56.1218 84.3837C62.5206 72.142 71.8082 61.5101 83.2419 53.338C84.0069 52.7873 84.7867 52.2509 85.5714 51.7287C100.872 41.4985 119.059 36.0154 137.693 36.0154C156.326 36.0154 174.514 41.4985 189.814 51.7287C190.599 52.2509 191.378 52.7873 192.143 53.338C203.585 61.503 212.878 72.1333 219.278 84.3766C225.678 96.6199 229.006 110.135 228.995 123.839V123.839Z" fill="white"/>
<path d="M137.693 204.067C183.756 204.067 221.099 168.148 221.099 123.839C221.099 79.5303 183.756 43.6109 137.693 43.6109C91.6288 43.6109 54.2867 79.5303 54.2867 123.839C54.2867 168.148 91.6288 204.067 137.693 204.067Z" fill="#BDDFF9"/>
<path opacity="0.2" d="M137.91 43.8352C136.646 43.8352 135.389 43.867 134.139 43.9205C155.219 45.7024 174.807 55.1254 188.934 70.2807C203.061 85.4359 210.671 105.19 210.222 125.541C209.773 145.892 201.299 165.317 186.516 179.882C171.733 194.447 151.747 203.062 130.607 203.982C133.014 204.183 135.449 204.292 137.91 204.292C160.031 204.292 181.245 195.839 196.887 180.793C212.529 165.748 221.316 145.341 221.316 124.063C221.316 102.786 212.529 82.3792 196.887 67.3335C181.245 52.2878 160.031 43.8352 137.91 43.8352V43.8352Z" fill="black"/>
<path d="M137.939 37.9142C137.22 37.9154 136.53 38.1909 136.021 38.6803C135.513 39.1697 135.226 39.8331 135.225 40.5252V51.9186C135.225 52.611 135.511 53.2751 136.02 53.7648C136.529 54.2545 137.22 54.5295 137.939 54.5295C138.659 54.5295 139.35 54.2545 139.859 53.7648C140.368 53.2751 140.654 52.611 140.654 51.9186V40.5252C140.653 39.8331 140.366 39.1697 139.857 38.6803C139.349 38.1909 138.659 37.9154 137.939 37.9142V37.9142Z" fill="white"/>
<path d="M192.143 53.338C191.378 52.7873 190.599 52.2509 189.814 51.7287C189.343 51.6992 188.872 51.7883 188.448 51.9873C188.024 52.1862 187.661 52.4882 187.396 52.8633L180.728 62.277C180.323 62.8493 180.171 63.5529 180.305 64.233C180.439 64.9132 180.849 65.5142 181.444 65.9039C182.039 66.2936 182.77 66.44 183.477 66.3109C184.184 66.1818 184.809 65.7878 185.214 65.2156L191.882 55.8018C192.136 55.4447 192.292 55.0322 192.338 54.6019C192.384 54.1716 192.317 53.7371 192.143 53.338V53.338Z" fill="white"/>
<path d="M222.436 96.2624C222.302 95.945 222.104 95.6562 221.854 95.4123C221.604 95.1685 221.306 94.9744 220.978 94.8413C220.65 94.7082 220.298 94.6385 219.941 94.6364C219.585 94.6342 219.232 94.6996 218.902 94.8288L207.926 99.1155C207.26 99.3766 206.729 99.8814 206.449 100.519C206.17 101.157 206.165 101.875 206.436 102.516C206.707 103.157 207.231 103.669 207.893 103.938C208.556 104.207 209.303 104.213 209.97 103.953L220.946 99.6662C221.611 99.4038 222.142 98.8983 222.422 98.2604C222.701 97.6225 222.706 96.9041 222.436 96.2624Z" fill="white"/>
<path d="M94.6572 62.277L87.9896 52.8633C87.7239 52.4882 87.3611 52.1862 86.937 51.9873C86.5129 51.7883 86.0422 51.6992 85.5714 51.7287C84.7867 52.2509 84.0069 52.7873 83.2419 53.338C83.0685 53.7371 83.0016 54.1716 83.0473 54.6019C83.093 55.0322 83.2498 55.4447 83.5035 55.8018L90.171 65.2156C90.5761 65.7878 91.201 66.1818 91.9081 66.3109C92.6152 66.44 93.3467 66.2936 93.9416 65.9039C94.5365 65.5143 94.9461 64.9132 95.0803 64.2331C95.2145 63.5529 95.0623 62.8493 94.6572 62.277V62.277Z" fill="white"/>
<path d="M67.459 99.1156L56.483 94.8288C55.8161 94.5683 55.069 94.5733 54.406 94.8427C53.7429 95.112 53.2182 95.6236 52.9473 96.265C52.6764 96.9064 52.6814 97.6251 52.9613 98.2629C53.2412 98.9007 53.773 99.4055 54.4398 99.6662L65.4158 103.953C66.0825 104.213 66.8293 104.207 67.4919 103.938C68.1545 103.669 68.6788 103.157 68.9496 102.516C69.2204 101.875 69.2155 101.157 68.936 100.519C68.6565 99.8814 68.1252 99.3766 67.459 99.1155V99.1156Z" fill="white"/>
<path d="M137.939 193.149C137.22 193.15 136.53 193.425 136.021 193.915C135.513 194.404 135.226 195.068 135.225 195.76V207.153C135.225 207.846 135.511 208.51 136.02 208.999C136.529 209.489 137.22 209.764 137.939 209.764C138.659 209.764 139.35 209.489 139.859 208.999C140.368 208.51 140.654 207.846 140.654 207.153V195.76C140.653 195.068 140.366 194.404 139.857 193.915C139.349 193.425 138.659 193.15 137.939 193.149V193.149Z" fill="white"/>
<path d="M191.882 191.877L185.214 182.463C185.014 182.179 184.757 181.937 184.459 181.749C184.161 181.561 183.827 181.431 183.477 181.367C183.127 181.304 182.767 181.307 182.418 181.376C182.069 181.446 181.738 181.581 181.444 181.774C181.149 181.967 180.897 182.214 180.702 182.501C180.506 182.788 180.371 183.109 180.305 183.445C180.239 183.782 180.242 184.128 180.314 184.464C180.387 184.799 180.528 185.118 180.728 185.401L187.396 194.815C187.661 195.19 188.024 195.492 188.448 195.691C188.872 195.89 189.343 195.979 189.814 195.95C190.599 195.427 191.378 194.891 192.143 194.34C192.317 193.941 192.384 193.507 192.338 193.076C192.292 192.646 192.136 192.234 191.882 191.877Z" fill="white"/>
<path d="M220.946 148.012L209.97 143.725C209.303 143.465 208.556 143.47 207.893 143.739C207.23 144.008 206.705 144.52 206.434 145.162C206.163 145.803 206.168 146.522 206.448 147.159C206.728 147.797 207.26 148.302 207.926 148.563L218.902 152.85C219.569 153.109 220.316 153.104 220.978 152.835C221.641 152.565 222.165 152.054 222.436 151.413C222.707 150.771 222.702 150.053 222.423 149.416C222.143 148.778 221.612 148.273 220.946 148.012V148.012Z" fill="white"/>
<path d="M93.9416 181.774C93.3466 181.385 92.6152 181.239 91.9081 181.368C91.2011 181.497 90.5763 181.891 90.1711 182.463L83.5035 191.877C83.2498 192.234 83.093 192.646 83.0473 193.076C83.0016 193.507 83.0685 193.941 83.2419 194.34C84.0069 194.891 84.7867 195.427 85.5714 195.95C86.0422 195.979 86.513 195.89 86.9371 195.691C87.3612 195.492 87.724 195.19 87.9897 194.815L94.6572 185.401C94.8578 185.118 94.9984 184.799 95.071 184.464C95.1436 184.128 95.1468 183.782 95.0804 183.445C95.0139 183.108 94.8791 182.788 94.6837 182.501C94.4883 182.214 94.2361 181.967 93.9416 181.774V181.774Z" fill="white"/>
<path d="M68.9494 145.159C68.8154 144.842 68.6176 144.553 68.3674 144.309C68.1173 144.065 67.8196 143.871 67.4914 143.738C67.1633 143.605 66.811 143.535 66.4549 143.533C66.0987 143.531 65.7456 143.596 65.4158 143.725L54.4397 148.012C53.7735 148.273 53.2423 148.778 52.9628 149.416C52.6832 150.053 52.6784 150.771 52.9491 151.413C53.2199 152.054 53.7442 152.565 54.4069 152.835C55.0695 153.104 55.8162 153.109 56.4829 152.849L67.459 148.563C68.1249 148.3 68.6556 147.795 68.935 147.157C69.2143 146.519 69.2195 145.801 68.9494 145.159V145.159Z" fill="white"/>
<path d="M141.461 122.544C141.712 123.971 141.364 125.435 140.493 126.616C139.623 127.797 138.301 128.597 136.818 128.841L88.6506 136.722C87.9159 136.842 87.1637 136.822 86.437 136.663C85.7103 136.503 85.0234 136.208 84.4155 135.793C83.8076 135.378 83.2905 134.852 82.8939 134.246C82.4972 133.639 82.2287 132.962 82.1037 132.256C81.9787 131.549 81.9997 130.825 82.1654 130.126C82.3311 129.427 82.6384 128.767 83.0695 128.182C83.5007 127.597 84.0474 127.1 84.6784 126.718C85.3094 126.337 86.0124 126.078 86.7472 125.958L134.914 118.077C136.398 117.836 137.921 118.171 139.148 119.008C140.375 119.846 141.207 121.117 141.461 122.544V122.544Z" fill="#3F3D56"/>
<path d="M192.156 173.876C191.464 174.545 190.524 174.923 189.543 174.927C188.562 174.931 187.619 174.56 186.921 173.896L135.07 124.411C134.374 123.746 133.982 122.842 133.978 121.898C133.975 120.955 134.361 120.048 135.052 119.378C135.743 118.708 136.682 118.33 137.663 118.326C138.644 118.321 139.587 118.692 140.284 119.356L192.135 168.841C192.831 169.506 193.224 170.41 193.228 171.354C193.232 172.298 192.846 173.205 192.156 173.876V173.876Z" fill="#3F3D56"/>
<path d="M137.693 130.011C141.236 130.011 144.108 127.248 144.108 123.839C144.108 120.431 141.236 117.668 137.693 117.668C134.149 117.668 131.277 120.431 131.277 123.839C131.277 127.248 134.149 130.011 137.693 130.011Z" fill="#CCCCCC"/>
<path d="M93.5004 16.8265C83.6522 31.7198 68.626 41.6036 50.0949 48.0968C49.7288 48.3606 49.3121 48.5524 48.8689 48.6613C48.4256 48.7703 47.9644 48.7942 47.5116 48.7316C47.0587 48.6691 46.6231 48.5214 46.2296 48.2969C45.8361 48.0725 45.4924 47.7757 45.2181 47.4234V47.4234C35.1522 34.4955 37.4251 16.019 50.71 6.14058C53.9218 3.75647 57.594 2.0098 61.5133 1.00197C65.4326 -0.00585799 69.5211 -0.254768 73.5412 0.269696C77.5614 0.79416 81.4332 2.08155 84.9319 4.05712C88.4306 6.03269 91.4864 8.6571 93.922 11.778L94.2005 12.1355C94.4747 12.4878 94.6742 12.8885 94.7874 13.3149C94.9006 13.7412 94.9255 14.1849 94.8605 14.6205C94.7955 15.0561 94.6419 15.4751 94.4085 15.8536C94.1752 16.2321 93.8666 16.5627 93.5004 16.8265V16.8265Z" fill="#E6E6E6"/>
<path d="M181.463 11.778C183.899 8.65709 186.955 6.03268 190.453 4.05711C193.952 2.08154 197.824 0.794162 201.844 0.269698C205.864 -0.254766 209.953 -0.00586319 213.872 1.00196C217.791 2.00979 221.464 3.75646 224.675 6.14058C237.96 16.019 240.233 34.4955 230.167 47.4234C229.893 47.7756 229.549 48.0725 229.156 48.2969C228.762 48.5214 228.327 48.6691 227.874 48.7316C227.421 48.7942 226.96 48.7703 226.516 48.6613C226.073 48.5524 225.657 48.3606 225.29 48.0968C208.087 41.7614 193.98 30.7981 181.885 16.8265C181.145 16.2937 180.656 15.5002 180.525 14.6205C180.394 13.7407 180.631 12.8469 181.185 12.1355L181.463 11.778Z" fill="#E6E6E6"/>
<path d="M177.147 212.265C176.519 212.604 176.057 213.168 175.862 213.835C175.666 214.501 175.753 215.214 176.104 215.819L191.769 242.746C192.121 243.35 192.707 243.795 193.4 243.983C194.093 244.171 194.835 244.087 195.463 243.749C196.091 243.411 196.554 242.847 196.75 242.18C196.945 241.514 196.858 240.8 196.506 240.196L180.841 213.269C180.489 212.665 179.902 212.221 179.209 212.033C178.517 211.845 177.775 211.928 177.147 212.265V212.265Z" fill="#E6E6E6"/>
<path d="M94.5443 213.269L78.8788 240.196C78.5275 240.8 78.44 241.514 78.6357 242.18C78.8314 242.847 79.2942 243.411 79.9223 243.749C80.5505 244.087 81.2925 244.171 81.9852 243.983C82.678 243.795 83.2647 243.35 83.6163 242.746L99.2818 215.819C99.4559 215.519 99.5671 215.19 99.609 214.85C99.6508 214.509 99.6225 214.164 99.5257 213.834C99.4288 213.504 99.2653 213.195 99.0445 212.926C98.8237 212.657 98.55 212.432 98.2389 212.265C97.9278 212.097 97.5854 211.99 97.2313 211.95C96.8773 211.91 96.5185 211.937 96.1754 212.03C95.8323 212.124 95.5117 212.281 95.2318 212.493C94.9519 212.706 94.7183 212.969 94.5443 213.269H94.5443Z" fill="#E6E6E6"/>
<path d="M194.942 249.641C199.575 249.641 203.332 246.028 203.332 241.571C203.332 237.113 199.575 233.5 194.942 233.5C190.308 233.5 186.552 237.113 186.552 241.571C186.552 246.028 190.308 249.641 194.942 249.641Z" fill="#E6E6E6"/>
<path d="M200.864 43.1362C205.498 43.1362 209.254 39.523 209.254 35.0659C209.254 30.6088 205.498 26.9956 200.864 26.9956C196.23 26.9956 192.474 30.6088 192.474 35.0659C192.474 39.523 196.23 43.1362 200.864 43.1362Z" fill="#E6E6E6"/>
<path d="M137.199 24.1472C141.833 24.1472 145.589 20.5341 145.589 16.0769C145.589 11.6198 141.833 8.00665 137.199 8.00665C132.565 8.00665 128.809 11.6198 128.809 16.0769C128.809 20.5341 132.565 24.1472 137.199 24.1472Z" fill="#E6E6E6"/>
<path d="M76.4954 42.1867C81.129 42.1867 84.8854 38.5735 84.8854 34.1164C84.8854 29.6593 81.129 26.0461 76.4954 26.0461C71.8618 26.0461 68.1055 29.6593 68.1055 34.1164C68.1055 38.5735 71.8618 42.1867 76.4954 42.1867Z" fill="#E6E6E6"/>
<path d="M81.9242 249.641C86.5579 249.641 90.3142 246.028 90.3142 241.571C90.3142 237.113 86.5579 233.5 81.9242 233.5C77.2906 233.5 73.5343 237.113 73.5343 241.571C73.5343 246.028 77.2906 249.641 81.9242 249.641Z" fill="#E6E6E6"/>
<path d="M188.361 169.337C188.691 169.835 189.132 170.257 189.65 170.574C190.169 170.891 190.754 171.094 191.363 171.17C191.972 171.246 192.592 171.193 193.177 171.013C193.763 170.834 194.3 170.534 194.752 170.133L207.917 176.919L207.211 169.484L194.817 164.18C194.067 163.495 193.082 163.098 192.048 163.065C191.014 163.031 190.004 163.364 189.208 164C188.412 164.636 187.886 165.53 187.73 166.514C187.574 167.497 187.798 168.502 188.361 169.337H188.361Z" fill="#FFB7B7"/>
<path d="M197.953 171.932L203.112 165.082L227.966 176.383L258.894 170.801C260.422 170.525 261.996 170.577 263.501 170.951C265.007 171.326 266.409 172.015 267.607 172.969C268.805 173.924 269.77 175.12 270.433 176.473C271.096 177.827 271.441 179.304 271.444 180.8V180.8C271.446 183.503 270.334 186.095 268.351 188.01C266.368 189.924 263.677 191.004 260.867 191.012L225.424 191.075L197.953 171.932Z" fill="#3F3D56"/>
<path d="M190.007 290.245L184.787 287.844L191.957 266.858L199.661 270.402L190.007 290.245Z" fill="#FFB7B7"/>
<path d="M225.001 286.862C224.621 287.091 224.242 287.316 223.858 287.541C223.095 287.991 222.325 288.433 221.554 288.868C221.167 289.086 220.776 289.304 220.389 289.518V289.529L220.366 289.532L220.358 289.536L219.768 289.676L218.92 287.522L218.529 286.53L217.977 285.125L216.965 282.555L211.635 269.02L219.921 267.054L220.231 268.275H220.235L220.389 268.879L223.283 280.172L223.874 282.481L223.893 282.551L224.25 283.93L224.556 285.125L224.897 286.46L225.001 286.862Z" fill="#FFB7B7"/>
<path d="M274.427 239.33C273.902 240.142 273.365 240.95 272.824 241.75C271.82 243.24 270.788 244.708 269.73 246.153C269.73 246.157 269.726 246.157 269.722 246.161C269.105 246.711 268.423 247.19 267.69 247.588C267.66 247.61 267.625 247.625 267.594 247.643C267.055 247.93 266.481 248.152 265.884 248.303C265.67 248.355 265.451 248.407 265.237 248.458C264.462 248.635 263.695 248.787 262.932 248.919C261.575 249.152 260.233 249.318 258.899 249.421C258.791 249.432 258.684 249.439 258.577 249.447C253.09 249.834 247.749 249.211 242.175 248.189C239.422 247.687 236.611 247.086 233.701 246.463C232.75 246.257 231.796 246.054 230.83 245.851C230.757 245.836 230.68 245.818 230.603 245.803C229.223 245.512 227.82 245.224 226.382 244.94C224.572 244.582 222.705 244.236 220.765 243.907L220.903 246.537C221.018 248.56 221.455 250.554 222.199 252.449C223.027 254.78 223.683 256.624 222.299 260.463L221.632 262.321C221.977 263.244 222.096 264.232 221.978 265.207C221.861 266.181 221.51 267.116 220.953 267.938L220.819 268.134L226.382 281.672L226.742 282.55H223.894L220.389 282.554H214.45L205.881 266.017L205.471 265.228V265.187L206.357 233.408C206.368 233.127 206.391 232.843 206.43 232.563C206.586 231.289 207.004 230.057 207.66 228.94C208.317 227.823 209.198 226.843 210.252 226.057C211.262 225.298 212.42 224.739 213.656 224.414C214.893 224.088 216.185 224.003 217.456 224.162L220.389 224.527L226.382 225.272L230.603 225.799L230.688 225.81L243.137 227.359L244.03 223.856L244.195 223.797L249.436 221.949L267.564 215.558L267.61 215.543L268.802 215.122L268.944 215.344C268.986 215.41 269.028 215.477 269.067 215.543C270.245 217.575 271.205 219.718 271.931 221.938C273.151 225.564 274.156 229.255 274.941 232.991C274.975 233.153 275.006 233.301 275.033 233.433L275.044 233.474C275.056 233.537 275.063 233.577 275.067 233.588C275.485 235.263 275.194 237.306 274.427 239.33Z" fill="#2F2E41"/>
<path d="M275.192 227.619C275.134 227.383 275.062 227.143 274.985 226.911C274.376 225.151 273.667 223.425 272.861 221.74C271.956 219.822 270.871 217.768 269.579 215.544C268.954 214.467 268.282 213.347 267.562 212.185C267.202 211.602 266.827 211.008 266.439 210.403C266.424 210.375 266.407 210.348 266.389 210.322L266.278 210.145L248.342 212.454L241.663 213.313L241.264 216.514L241.168 217.307C241.165 217.307 241.165 217.307 241.168 217.311L240.9 219.472V219.476L240.543 222.33L240.513 222.327L230.602 221.091L220.388 219.819L214.901 219.136C213.63 218.977 212.338 219.063 211.101 219.388C209.864 219.713 208.707 220.272 207.697 221.032C206.643 221.818 205.762 222.798 205.106 223.915C204.449 225.032 204.031 226.264 203.874 227.538C203.84 227.796 203.817 228.061 203.805 228.323L198.629 240.121C195.532 247.177 193.56 254.642 192.779 262.264L188.983 273.936L189.523 273.984L197.567 274.704L199.691 274.895L204.369 268.327C204.902 267.578 205.408 266.808 205.88 266.018C206.656 264.729 207.346 263.394 207.946 262.021L218.064 238.86C218.846 238.989 219.621 239.112 220.388 239.229C223.934 239.782 227.339 240.233 230.602 240.582C241.211 241.722 250.397 241.81 258.575 240.844C260.872 240.575 263.092 240.221 265.235 239.782C266.021 239.623 266.797 239.452 267.562 239.269C267.742 239.229 267.919 239.188 268.095 239.144C269.68 238.751 271.136 237.982 272.332 236.907C273.528 235.832 274.424 234.486 274.939 232.992C275.554 231.261 275.642 229.397 275.192 227.619V227.619Z" fill="#2F2E41"/>
<path d="M191.674 286.819L186.027 284.215L185.141 283.806L183.726 287.147L173.85 289.238C173.361 289.341 172.92 289.591 172.59 289.953C172.261 290.314 172.06 290.768 172.017 291.247C171.974 291.726 172.091 292.206 172.352 292.616C172.613 293.026 173.003 293.345 173.466 293.527L183.117 297.315L186.18 294.663L185.429 298.222L189.063 299.649L193.047 287.453L191.674 286.819Z" fill="#2F2E41"/>
<path d="M226.382 281.672L226.743 282.55H226.382V281.672Z" fill="#2F2E41"/>
<path d="M224.415 282.738L218.498 284.71L217.569 285.019L219.008 288.35L213.519 296.521C213.248 296.925 213.117 297.401 213.147 297.881C213.177 298.361 213.366 298.819 213.686 299.189C214.006 299.558 214.441 299.82 214.926 299.935C215.411 300.05 215.922 300.012 216.384 299.828L226.012 295.988L226.249 292.03L228.319 295.068L231.945 293.622L225.855 282.26L224.415 282.738Z" fill="#2F2E41"/>
<path d="M273.716 232.962C273.365 232.961 273.019 232.879 272.708 232.721L241.48 217.026L241.119 215.605L240.439 211.109L240.449 211.066L243.419 197.896C243.364 197.783 243.25 197.597 243.122 197.388C241.796 195.227 237.761 188.65 245.462 179.595L258.982 164.433L270.586 163.952L270.719 164.113C273.821 167.859 275.914 172.284 276.81 176.996C277.707 181.707 277.379 186.559 275.856 191.119L274.648 212.11L275.944 216.349C276.702 218.84 276.576 221.503 275.588 223.918L275.885 230.782C275.896 231.064 275.849 231.344 275.745 231.608C275.642 231.871 275.484 232.111 275.282 232.315C275.079 232.518 274.836 232.68 274.567 232.792C274.298 232.903 274.009 232.961 273.716 232.962L273.716 232.962Z" fill="#3F3D56"/>
<path d="M246.628 250.273C247.157 249.973 247.612 249.564 247.959 249.076C248.306 248.589 248.538 248.034 248.638 247.451C248.738 246.867 248.704 246.27 248.538 245.701C248.372 245.132 248.078 244.605 247.678 244.157L255.186 231.737L247.436 232.157L241.495 243.887C240.757 244.584 240.31 245.517 240.24 246.51C240.169 247.503 240.48 248.486 241.113 249.273C241.745 250.06 242.656 250.597 243.673 250.781C244.69 250.966 245.741 250.785 246.628 250.273L246.628 250.273Z" fill="#FFB7B7"/>
<path d="M249.658 241.142L242.72 235.944L255.327 212.445L250.603 182.519C250.37 181.04 250.478 179.53 250.919 178.095C251.361 176.66 252.126 175.337 253.159 174.219C254.192 173.1 255.469 172.214 256.898 171.624C258.327 171.033 259.874 170.753 261.428 170.802V170.802C264.236 170.894 266.891 172.054 268.811 174.026C270.731 175.999 271.76 178.624 271.67 181.325L270.503 215.399L249.658 241.142Z" fill="#3F3D56"/>
<path d="M251.539 158.132V147.087C251.536 143.162 253.155 139.396 256.039 136.619C258.922 133.841 262.835 132.28 266.916 132.277C270.997 132.275 274.911 133.832 277.799 136.605C280.686 139.379 282.31 143.143 282.312 147.068V147.087C285.024 152.523 283.328 155.107 282.312 158.132C282.311 158.659 282.094 159.164 281.706 159.537C281.319 159.909 280.794 160.119 280.246 160.12H253.606C253.058 160.119 252.533 159.909 252.145 159.537C251.758 159.164 251.54 158.659 251.539 158.132V158.132Z" fill="#2F2E41"/>
<path d="M261.881 159.402C268.242 159.402 273.398 154.442 273.398 148.323C273.398 142.205 268.242 137.245 261.881 137.245C255.52 137.245 250.363 142.205 250.363 148.323C250.363 154.442 255.52 159.402 261.881 159.402Z" fill="#FFB7B7"/>
<path d="M273.934 151.228C273.83 151.212 273.726 151.191 273.621 151.175C271.825 150.868 270.028 150.567 268.237 150.255L268.072 146.35L265.902 149.848C260.952 151.428 256.32 150.535 251.964 148.564C250.527 147.908 249.132 147.168 247.788 146.35C248.154 144.19 249.018 142.136 250.315 140.338C251.613 138.541 253.312 137.045 255.288 135.96C255.452 135.87 255.612 135.791 255.777 135.712C255.777 135.712 255.778 135.711 255.779 135.711C255.779 135.711 255.78 135.711 255.78 135.71C255.781 135.71 255.781 135.709 255.782 135.708C255.782 135.708 255.782 135.707 255.782 135.706C256.062 135.579 256.348 135.458 256.634 135.347C258.87 134.506 261.309 134.293 263.666 134.733C266.024 135.173 268.203 136.247 269.951 137.831C273.467 141.06 275.05 146.392 273.934 151.228Z" fill="#2F2E41"/>
</g>
<defs>
<clipPath id="clip0_7_24">
<rect width="333.461" height="300" fill="white"/>
</clipPath>
</defs>
</svg>
