<svg width="169" height="193" viewBox="0 0 169 193" fill="none" xmlns="http://www.w3.org/2000/svg">
<path d="M157.578 0H10.5163C4.71476 0 0.0118408 4.05036 0.0118408 9.04688V15.0781C0.0118408 20.0746 4.71476 24.125 10.5163 24.125C10.5163 58.4145 32.8452 87.3529 63.4069 96.5C32.8452 105.647 10.5163 134.585 10.5163 168.875C4.71476 168.875 0.0118408 172.925 0.0118408 177.922V183.953C0.0118408 188.95 4.71476 193 10.5163 193H157.578C163.38 193 168.083 188.95 168.083 183.953V177.922C168.083 172.925 163.38 168.875 157.578 168.875C157.578 134.585 135.249 105.647 104.688 96.5C135.249 87.3529 157.578 58.4145 157.578 24.125C163.38 24.125 168.083 20.0746 168.083 15.0781V9.04688C168.083 4.05036 163.38 0 157.578 0ZM124.718 144.75H43.3776C50.8441 127.11 66.1792 114.594 84.0472 114.594C101.914 114.594 117.251 127.107 124.718 144.75ZM124.726 48.25H43.3767C40.2736 40.9175 38.5281 32.6999 38.5281 24.125H129.566C129.566 32.7214 127.821 40.9322 124.726 48.25Z" fill="black" fill-opacity="0.94"/>
</svg>
