<svg width="50" height="28" viewBox="0 0 50 28" fill="none" xmlns="http://www.w3.org/2000/svg">
<rect width="49.2613" height="27.4133" rx="6.848" fill="#F5EEFC"/>
<path d="M11.9383 18.7067C11.8196 18.7067 11.7237 18.6747 11.6507 18.6108C11.5868 18.5469 11.5411 18.4556 11.5137 18.3369L9.74694 9.54404C9.7378 9.50752 9.73324 9.47556 9.73324 9.44817C9.73324 9.42078 9.73324 9.40252 9.73324 9.39338C9.73324 9.32034 9.76063 9.25642 9.81542 9.20164C9.8702 9.14686 9.93411 9.11946 10.0072 9.11946H10.7194C10.9111 9.11946 11.0207 9.19708 11.0481 9.3523L12.445 16.4194L13.9242 11.571C13.9516 11.4889 13.9973 11.4158 14.0612 11.3519C14.1342 11.2789 14.2347 11.2423 14.3625 11.2423H14.8692C15.0062 11.2423 15.1066 11.2789 15.1706 11.3519C15.2345 11.4158 15.2756 11.4889 15.2938 11.571L16.7867 16.4194L18.17 9.3523C18.1974 9.19708 18.3115 9.11946 18.5124 9.11946H19.2246C19.2976 9.11946 19.3615 9.14686 19.4163 9.20164C19.4711 9.25642 19.4985 9.32034 19.4985 9.39338C19.4985 9.40252 19.4939 9.42078 19.4848 9.44817C19.4848 9.47556 19.4848 9.50752 19.4848 9.54404L17.718 18.3369C17.6906 18.4556 17.6404 18.5469 17.5674 18.6108C17.5034 18.6747 17.4121 18.7067 17.2934 18.7067H16.7593C16.6315 18.7067 16.531 18.6747 16.458 18.6108C16.3849 18.5469 16.3347 18.4647 16.3073 18.3643L14.609 13.1461L12.9244 18.3643C12.8879 18.4647 12.8331 18.5469 12.7601 18.6108C12.6961 18.6747 12.6003 18.7067 12.4724 18.7067H11.9383ZM23.7346 18.8436C23.0407 18.8436 22.4609 18.7112 21.9952 18.4464C21.5296 18.1817 21.1735 17.8164 20.9269 17.3508C20.6804 16.876 20.5434 16.3373 20.5161 15.7346C20.5069 15.5794 20.5024 15.3831 20.5024 15.1457C20.5024 14.8992 20.5069 14.7029 20.5161 14.5568C20.5434 13.945 20.6804 13.4063 20.9269 12.9406C21.1826 12.475 21.5433 12.1098 22.0089 11.845C22.4746 11.5802 23.0498 11.4478 23.7346 11.4478C24.4194 11.4478 24.9946 11.5802 25.4603 11.845C25.926 12.1098 26.2821 12.475 26.5286 12.9406C26.7843 13.4063 26.9258 13.945 26.9532 14.5568C26.9623 14.7029 26.9669 14.8992 26.9669 15.1457C26.9669 15.3831 26.9623 15.5794 26.9532 15.7346C26.9258 16.3373 26.7888 16.876 26.5423 17.3508C26.2958 17.8164 25.9397 18.1817 25.474 18.4464C25.0083 18.7112 24.4285 18.8436 23.7346 18.8436ZM23.7346 17.789C24.3007 17.789 24.7527 17.611 25.0905 17.2549C25.4284 16.8897 25.611 16.3601 25.6384 15.6662C25.6475 15.5292 25.6521 15.3557 25.6521 15.1457C25.6521 14.9357 25.6475 14.7622 25.6384 14.6253C25.611 13.9313 25.4284 13.4063 25.0905 13.0502C24.7527 12.685 24.3007 12.5024 23.7346 12.5024C23.1685 12.5024 22.712 12.685 22.365 13.0502C22.0272 13.4063 21.8491 13.9313 21.8309 14.6253C21.8217 14.7622 21.8172 14.9357 21.8172 15.1457C21.8172 15.3557 21.8217 15.5292 21.8309 15.6662C21.8491 16.3601 22.0272 16.8897 22.365 17.2549C22.712 17.611 23.1685 17.789 23.7346 17.789ZM28.9969 18.7067C28.9056 18.7067 28.828 18.6793 28.764 18.6245C28.7093 18.5606 28.6819 18.483 28.6819 18.3917V11.9134C28.6819 11.8221 28.7093 11.7445 28.764 11.6806C28.828 11.6167 28.9056 11.5847 28.9969 11.5847H29.6269C29.7182 11.5847 29.7958 11.6167 29.8597 11.6806C29.9236 11.7445 29.9556 11.8221 29.9556 11.9134V12.5161C30.1382 12.2056 30.3893 11.9728 30.7089 11.8176C31.0285 11.6624 31.4119 11.5847 31.8593 11.5847H32.4072C32.4985 11.5847 32.5715 11.6167 32.6263 11.6806C32.6811 11.7354 32.7085 11.8084 32.7085 11.8998V12.4613C32.7085 12.5526 32.6811 12.6256 32.6263 12.6804C32.5715 12.7352 32.4985 12.7626 32.4072 12.7626H31.5854C31.0924 12.7626 30.7043 12.9087 30.4213 13.2009C30.1382 13.4839 29.9967 13.872 29.9967 14.365V18.3917C29.9967 18.483 29.9647 18.5606 29.9008 18.6245C29.8369 18.6793 29.7593 18.7067 29.668 18.7067H28.9969ZM34.2134 18.7067C34.1221 18.7067 34.0445 18.6793 33.9806 18.6245C33.9258 18.5606 33.8984 18.483 33.8984 18.3917V9.29751C33.8984 9.20621 33.9258 9.13316 33.9806 9.07838C34.0445 9.01446 34.1221 8.9825 34.2134 8.9825H34.8572C34.9485 8.9825 35.0215 9.01446 35.0763 9.07838C35.1402 9.13316 35.1722 9.20621 35.1722 9.29751V14.0637L37.8703 11.8176C37.9798 11.7263 38.062 11.6669 38.1168 11.6395C38.1807 11.603 38.2812 11.5847 38.4181 11.5847H39.144C39.2262 11.5847 39.2947 11.6121 39.3494 11.6669C39.4042 11.7217 39.4316 11.7902 39.4316 11.8724C39.4316 11.9089 39.4179 11.95 39.3905 11.9956C39.3723 12.0413 39.3312 12.0869 39.2673 12.1326L36.1035 14.7622L39.6097 18.1725C39.7192 18.2638 39.774 18.346 39.774 18.419C39.774 18.5012 39.7466 18.5697 39.6918 18.6245C39.6371 18.6793 39.5686 18.7067 39.4864 18.7067H38.7742C38.6373 18.7067 38.5368 18.693 38.4729 18.6656C38.409 18.6291 38.3268 18.5651 38.2264 18.4738L35.1722 15.5566V18.3917C35.1722 18.483 35.1402 18.5606 35.0763 18.6245C35.0215 18.6793 34.9485 18.7067 34.8572 18.7067H34.2134Z" fill="#9B51E0"/>
</svg>
